<?xml version="1.0" standalone="no"?>
<!DOCTYPE svg PUBLIC "-//W3C//DTD SVG 20010904//EN"
 "http://www.w3.org/TR/2001/REC-SVG-20010904/DTD/svg10.dtd">
<svg version="1.0" xmlns="http://www.w3.org/2000/svg"
 width="738.000000pt" height="738.000000pt" viewBox="0 0 738.000000 738.000000"
 preserveAspectRatio="xMidYMid meet">
<metadata>
Created by potrace 1.11, written by Peter Selinger 2001-2013
</metadata>
<g transform="translate(0.000000,738.000000) scale(0.100000,-0.100000)"
fill="#000000" stroke="none">
<path d="M0 3690 l0 -3690 3690 0 3690 0 0 3690 0 3690 -3690 0 -3690 0 0
-3690z m7360 10 l0 -3670 -3670 0 -3670 0 0 3670 0 3670 3670 0 3670 0 0
-3670z"/>
<path d="M5009 6969 c-145 -15 -266 -56 -473 -160 -245 -123 -509 -323 -783
-592 l-112 -110 -89 84 c-253 242 -632 535 -797 617 -245 122 -539 174 -715
128 -76 -21 -186 -74 -252 -122 -217 -160 -357 -526 -358 -939 0 -212 48 -594
105 -839 19 -82 34 -150 32 -152 -1 -1 -37 -12 -81 -24 -194 -54 -495 -166
-726 -270 -345 -156 -614 -426 -680 -686 -39 -151 -21 -355 43 -481 93 -183
300 -393 523 -531 194 -120 565 -280 839 -362 l141 -42 -32 -145 c-67 -298
-124 -698 -124 -868 0 -238 72 -508 178 -668 75 -114 206 -211 359 -264 71
-25 91 -27 218 -27 218 0 407 48 628 161 196 100 490 310 709 506 53 48 100
87 103 87 4 0 46 -36 93 -80 48 -44 156 -134 240 -200 457 -358 756 -490 1111
-490 165 0 231 13 336 65 161 78 293 228 371 420 125 306 117 837 -22 1389
-14 54 -23 103 -22 108 2 6 55 26 118 45 137 41 450 164 609 239 377 179 601
383 741 677 59 124 69 165 70 283 1 311 -195 589 -580 827 -188 116 -518 255
-785 332 -71 21 -133 40 -138 44 -4 4 6 65 23 137 32 140 73 416 91 614 14
153 6 404 -16 519 -37 189 -114 369 -220 512 -144 195 -392 289 -676 258z
m-2534 -363 c50 -15 135 -49 190 -76 182 -89 549 -348 801 -565 l23 -20 -100
-120 c-136 -162 -304 -387 -454 -609 l-125 -183 -197 -1 c-224 0 -445 -20
-649 -58 l-31 -6 -41 169 c-142 581 -146 1007 -11 1280 53 107 123 174 212
203 89 29 257 23 382 -14z m2793 -16 c67 -29 151 -118 191 -203 119 -253 116
-691 -10 -1227 -38 -163 -31 -150 -76 -140 -127 29 -593 82 -856 99 -82 5
-150 11 -151 13 -2 1 -29 49 -60 105 -101 185 -247 396 -395 573 l-63 75 53
49 c408 375 773 605 1069 671 94 21 230 14 298 -15z m-1422 -982 c120 -123
327 -354 395 -440 l29 -36 -277 -1 c-329 0 -663 -23 -833 -57 l-34 -7 21 29
c110 152 539 644 563 644 4 0 65 -60 136 -132z m-361 -638 c390 -17 946 -67
966 -87 34 -35 467 -898 510 -1016 l14 -39 -93 -181 c-156 -309 -337 -626
-501 -879 l-76 -117 -65 -8 c-81 -10 -1136 -11 -1170 -1 -55 16 -404 596 -632
1052 -56 111 -101 206 -101 211 0 13 194 321 336 535 100 149 248 358 352 497
l39 52 90 -4 c50 -3 199 -10 331 -15z m-800 -145 c-151 -255 -336 -617 -386
-757 -7 -21 -15 -38 -19 -38 -17 0 -301 744 -288 755 18 15 684 162 745 164
19 1 14 -12 -52 -124z m2045 25 c288 -45 600 -107 600 -120 0 -23 -182 -505
-230 -612 -13 -27 -15 -24 -115 141 -122 202 -236 369 -344 509 -93 118 -100
111 89 82z m-3036 -382 c76 -231 192 -526 291 -738 37 -80 69 -154 72 -165 3
-12 -18 -58 -53 -120 -68 -117 -163 -323 -224 -482 -24 -62 -48 -113 -55 -113
-19 0 -271 75 -395 119 -359 124 -599 259 -776 435 -197 197 -228 345 -117
546 47 84 212 250 318 320 91 59 354 192 524 264 110 47 329 133 342 135 4 1
36 -90 73 -201z m4149 122 c436 -150 730 -311 923 -505 83 -83 109 -117 140
-181 35 -71 38 -87 39 -159 0 -74 -3 -88 -39 -160 -32 -64 -58 -99 -135 -175
-138 -137 -305 -242 -556 -351 -132 -57 -489 -178 -536 -182 -30 -2 -31 0 -78
123 -60 156 -147 361 -217 509 -30 63 -54 119 -54 126 0 7 30 79 66 161 95
213 194 464 261 662 32 95 61 172 64 172 4 0 59 -18 122 -40z m-3555 -1463
c46 -84 120 -212 164 -285 44 -74 77 -136 74 -140 -8 -7 -207 22 -406 60 -188
35 -190 36 -190 54 0 34 138 489 176 579 l16 39 42 -77 c22 -43 78 -146 124
-230z m2958 38 c90 -249 124 -366 111 -370 -34 -13 -538 -98 -543 -92 -1 1 44
79 100 173 55 94 137 236 181 317 44 80 83 143 86 139 4 -4 33 -79 65 -167z
m-3260 -765 c162 -35 451 -84 624 -105 69 -8 144 -18 167 -21 41 -5 46 -10
129 -122 110 -147 285 -366 403 -502 l91 -105 -53 -53 c-79 -82 -248 -225
-371 -317 -208 -154 -349 -233 -524 -293 -100 -34 -115 -36 -232 -36 -119 -1
-128 0 -179 27 -146 77 -244 260 -281 522 -24 172 8 608 71 971 6 35 13 64 15
64 2 0 65 -13 140 -30z m3488 -7 c10 -38 37 -184 55 -308 81 -544 35 -927
-136 -1116 -199 -220 -627 -102 -1143 314 -108 88 -294 256 -299 270 -1 5 50
69 115 143 131 151 247 294 369 459 l82 110 224 27 c228 28 442 62 604 97 115
24 123 25 129 4z m-1474 -164 c0 -15 -310 -389 -322 -389 -10 0 -328 378 -328
391 0 2 146 4 325 4 179 0 325 -3 325 -6z"/>
<path d="M2960 4110 l0 -70 116 0 115 0 -3 -204 c-3 -189 -5 -207 -24 -233
-37 -49 -107 -47 -174 6 l-35 28 -43 -58 -43 -59 28 -24 c54 -47 114 -70 191
-74 87 -5 143 13 191 60 66 65 66 63 69 396 l3 302 -195 0 -196 0 0 -70z"/>
<path d="M3540 3800 l0 -380 80 0 80 0 0 235 c0 129 4 235 8 235 4 0 51 -90
104 -200 l96 -200 54 0 54 0 101 208 101 207 1 -242 1 -243 85 0 85 0 0 380 0
381 -115 -3 -115 -3 -95 -200 c-52 -110 -98 -201 -102 -202 -5 -1 -51 90 -103
202 l-95 205 -112 0 -113 0 0 -380z"/>
</g>
</svg>
